# xmcd
#
# Track frame offsets:
#	150
#	18790
#	30807
#	49980
#	64194
#	78305
#	91085
#	106138
#	117396
#	131541
#	147036
#	157725
#	173032
#	186500
#	198659
#	210881
#	222949
#	235205
#	249656
#	260589
#
# Disc length: 3693 seconds
#
# Revision: 0
# Processed by: cddbd v1.5.2PL0 Copyright (c) Steve Scherf et al.
# Submitted via: dBpowerAMP V4.0
#
DISCID=090e6b14
DTITLE=George Jones and Tammy Wynette - One
DYEAR=1995
DGENRE=Country
TTITLE0=One
TTITLE1=It's an Old Love Thing
TTITLE2=Whatever Happened to Us
TTITLE3=Will You Travel Down This Road With Me
TTITLE4=(She's Just) An Old Love Turned Memory 
TTITLE5=If God Met You
TTITLE6=Just Look What We've Started Again
TTITLE7=Solid as a Rock
TTITLE8=They're Playing Our Song 
TTITLE9=All I Have to Offer You Is Me
TTITLE10=A Pair Of Old Sneakers
TTITLE11=Right In The Wrong Direction
TTITLE12=I Just Started Livin' Today
TTITLE13=Love In The Meantime
TTITLE14=We Could
TTITLE15=Two Story House
TTITLE16=If We Didn't Make It
TTITLE17=It's Not My Fault
TTITLE18=We'll Talk About It Later
TTITLE19=Night Spell
EXTD=
EXTT0=
EXTT1=
EXTT2=
EXTT3=
EXTT4=
EXTT5=
EXTT6=
EXTT7=
EXTT8=
EXTT9=
EXTT10=
EXTT11=
EXTT12=
EXTT13=
EXTT14=
EXTT15=
EXTT16=
EXTT17=
EXTT18=
EXTT19=
PLAYORDER=
